<svg width="651" height="651" viewBox="0 0 651 651" fill="none" xmlns="http://www.w3.org/2000/svg">
<g clip-path="url(#clip0)">
<rect width="651" height="651" fill="white"/>
<circle cx="414.144" cy="329.641" r="115.5" fill="#007DA2"/>
<circle cx="508.644" cy="193.141" r="21" fill="#007DA2"/>
<circle cx="598.644" cy="219.141" r="21" fill="#007DA2"/>
<path d="M101 502.5H550.5" stroke="#919191"/>
<path d="M352.144 525.641C353.344 522.441 355.311 520.308 356.144 519.641L369.644 517.641L376.144 523.641C381.478 529.808 392.244 542.341 392.644 543.141C393.144 544.141 392.144 550.141 390.644 554.141C389.144 558.141 372.644 554.141 369.644 554.141C367.244 554.141 358.311 546.141 354.144 542.141C352.978 537.974 350.944 528.841 352.144 525.641Z" fill="#0F0F0F"/>
<path d="M356.144 516.141C361.824 517.062 372.734 518.577 374.422 517.873C374.541 517.465 374.644 517.336 374.644 517.641C374.644 517.736 374.567 517.813 374.422 517.873C373.958 519.47 373.263 525.344 377.644 526.141C373.478 525.974 364.744 527.041 363.144 532.641C361.544 538.241 361.811 534.641 362.144 532.141C360.144 529.974 356.144 525.441 356.144 524.641V516.141Z" fill="#5C3529"/>
<path d="M273.644 546.641C272.444 544.641 287.478 530.808 295.144 524.141L302.644 519.141C305.311 522.641 311.344 518.941 314.144 522.141C317.644 526.141 314.144 543.641 314.144 542.641C314.144 541.641 310.144 543.641 304.644 546.641C299.144 549.641 301.144 551.141 295.144 556.641C290.344 561.041 279.811 557.808 275.144 555.641C275.144 553.474 274.844 548.641 273.644 546.641Z" fill="#0F0F0F"/>
<path d="M291.144 527.641C294.744 526.441 293.978 519.474 293.144 516.141L312.144 512.141C312.311 515.974 312.544 524.141 312.144 526.141C311.744 528.141 305.978 532.308 303.144 534.141C302.744 526.541 293.978 527.641 289.644 529.141C288.644 529.141 287.544 528.841 291.144 527.641Z" fill="#5C3529"/>
<path d="M381.144 297.141L391.644 308.141C389.493 311.368 385.528 317.656 385.55 318.93C385.717 319.119 385.759 319.199 385.644 319.141C385.582 319.11 385.552 319.038 385.55 318.93C384.554 317.81 379.14 312.852 376.144 310.141L381.144 297.141Z" fill="#CCD8E1"/>
<path d="M284.644 297.141L299.644 284.141L354.144 279.641C360.978 283.141 375.044 290.141 376.644 290.141C378.644 290.141 376.644 368.141 376.644 378.141C376.644 388.141 378.144 422.641 379.144 427.641C379.944 431.641 381.478 435.974 382.144 437.641C380.311 463.308 376.644 515.041 376.644 516.641C376.644 518.241 364.311 517.308 358.144 516.641C356.644 516.141 353.744 514.641 354.144 512.641C354.644 510.141 351.644 453.141 350.144 448.641C348.644 444.141 348.144 435.641 350.144 431.641C352.144 427.641 331.644 345.641 329.644 344.641C327.644 343.641 318.144 419.141 315.644 424.641C313.644 429.041 314.811 436.808 315.644 440.141C316.811 445.474 317.144 448.641 315.644 456.141C315.095 458.887 311.811 497.808 311.644 518.641C299.644 523.041 291.644 520.474 289.144 518.641C288.144 499.641 285.844 459.941 284.644 453.141C283.144 444.641 286.144 432.641 286.144 422.641C286.144 414.641 285.144 335.641 284.644 297.141Z" fill="#111111"/>
<path d="M282.644 361.141C280.244 361.141 279.978 345.808 280.144 338.141L297.644 332.641L301.144 354.641C295.978 356.808 285.044 361.141 282.644 361.141Z" fill="#663E33"/>
<path d="M279.144 338.141L275.644 328.641L292.644 320.141L298.144 333.641C295.744 336.841 284.811 338.308 279.144 338.141Z" fill="#CCD8E1"/>
<path d="M315.644 165.641V151.141L345.644 150.141V165.641L329.144 177.141L315.644 165.641Z" fill="#52352C"/>
<path d="M350.736 138.641C350.736 152.724 342.005 164.141 331.236 164.141C320.466 164.141 311.736 152.724 311.736 138.641C311.736 133.219 309.53 124.323 311.736 118.641C315.26 109.564 324.612 104.641 331.236 104.641C337.463 104.641 346.074 109.801 349.644 118.141C352.248 124.224 350.736 132.701 350.736 138.641Z" fill="#663E33"/>
<path d="M330.644 171.641C327.444 172.441 319.311 163.974 315.644 159.641C309.644 157.641 332.644 252.641 334.644 252.641C336.644 252.641 346.144 177.141 348.144 172.641C349.052 170.598 349.053 164.108 348.144 161.641C346.644 160.641 346.144 161.141 345.644 160.641C341.811 163.974 333.844 170.841 330.644 171.641Z" fill="#E7F4FB"/>
<path d="M298.644 122.141C295.444 121.741 293.311 118.308 292.644 116.641C290.244 112.241 302.644 111.141 309.144 111.141C310.478 105.474 314.144 93.941 318.144 93.141C322.144 92.341 329.144 95.141 332.144 96.641C333.978 95.3076 338.444 92.941 341.644 94.141C344.844 95.341 348.978 105.974 350.644 111.141C356.144 111.474 367.144 112.841 367.144 115.641C367.144 119.141 363.144 120.641 360.144 122.141C357.144 123.641 302.644 122.641 298.644 122.141Z" fill="#242424"/>
<path d="M293.644 114.141C295.244 112.541 304.644 111.808 309.144 111.641C308.344 111.641 308.478 114.974 308.644 116.641L297.144 116.141C295.311 116.141 292.044 115.741 293.644 114.141Z" fill="#404B4E"/>
<path d="M366.144 115.141C366.144 112.741 355.811 111.474 350.644 111.141L351.644 116.641C356.478 117.141 366.144 117.541 366.144 115.141Z" fill="#404B4E"/>
<circle cx="331.644" cy="176.141" r="4" fill="#0B4050"/>
<path d="M328.77 260.141C327.999 259.341 328.449 205.808 328.77 179.141L331.72 177.141C332.524 177.808 333.786 179.141 334.557 179.141C335.329 179.141 338.737 233.141 340.344 260.141L334.557 266.141L328.77 260.141Z" fill="#134554"/>
<path fill-rule="evenodd" clip-rule="evenodd" d="M314.144 160.641C314.144 164.141 314.744 171.641 317.144 173.641C318.344 176.041 328.978 227.641 334.144 253.141C338.478 231.474 346.844 186.341 345.644 179.141C347.007 171.417 348.37 162.454 347.482 160.882C350.512 162.311 370.83 169.736 381.644 173.641C385.311 181.808 392.844 198.841 393.644 201.641C394.444 204.441 399.644 238.141 402.144 254.641C400.144 272.308 395.244 308.141 391.644 310.141C390.005 307.8 386.327 303.913 381.788 302.083C383.619 307.126 385.323 311.899 386.644 315.641C387.311 323.808 383.044 340.341 360.644 341.141C353.644 333.474 338.544 312.441 334.144 289.641C331.978 307.808 324.944 343.841 314.144 342.641C303.344 341.441 292.311 335.808 288.144 333.141C287.794 331.774 287.507 329.642 287.387 326.725C280.903 327.99 273.644 329.87 273.644 331.641C273.644 334.641 260.644 206.641 278.144 177.141L314.144 160.641ZM347.482 160.882C347.15 160.726 347.026 160.641 347.144 160.641C347.281 160.641 347.393 160.724 347.482 160.882ZM376.593 288.011L378.644 259.641L373.644 230.141C371.311 242.474 367.144 267.741 369.144 270.141C370.127 271.321 373.165 278.913 376.593 288.011ZM293.644 247.141L298.644 259.641C295.817 269.49 293.647 278.331 292 286.188L291.644 277.641L293.644 247.141Z" fill="url(#paint0_linear)"/>
</g>
<defs>
<linearGradient id="paint0_linear" x1="304.144" y1="180.141" x2="372.144" y2="331.641" gradientUnits="userSpaceOnUse">
<stop/>
<stop offset="0.963629" stop-color="#323232"/>
</linearGradient>
<clipPath id="clip0">
<rect width="651" height="651" fill="white"/>
</clipPath>
</defs>
</svg>
