<svg width="4943" height="4943" viewBox="0 0 4943 4943" fill="none" xmlns="http://www.w3.org/2000/svg">
<rect width="4943" height="4943" fill="white"/>
<path d="M1649.39 2964.16C1169.45 3318.44 475.534 3259.53 450.537 3374.05C425.54 3488.56 198.068 3554.63 759.499 3922.96C1320.93 4291.28 2141.33 4354.05 2936.23 4329.55C3731.13 4305.05 3857.12 4186.95 4475.54 3596.47C5093.97 3006 2129.33 2609.87 1649.39 2964.16Z" fill="#EFEFEF"/>
<path d="M2331 3119.22C2089 3437.22 1590.83 3462.05 1372 3434.72C1277.5 3427.37 482 3384.22 1214 3876.72C1460.81 4042.77 2047 3643.22 2627.5 4047.22C3729.42 4331.82 3558.52 3593.28 3749.52 3449.52C3765.44 3437.53 3787.31 3432.9 3806.86 3429.02C4515.64 3288.53 2569.66 2805.61 2331 3119.22Z" fill="#D8D8D8"/>
<path d="M2901 3551.72V3501.72L3328.5 3445.72C3348.83 3453.39 3383.5 3475.32 3359.5 3501.72C3329.5 3534.72 3270 3554.72 3243.5 3561.22C3222 3570.72 3165 3554.72 3126 3548.72C3094.8 3543.92 3057.67 3555.05 3043 3561.22C2951.4 3577.62 2910.17 3561.72 2901 3551.72Z" fill="black"/>
<path d="M1701.11 3591.03C1696.46 3582.26 1707.57 3548.17 1713.7 3532.22L2103.58 3610.46C2117.62 3608.3 2147.17 3605.28 2152.98 3610.46C2160.24 3616.94 2146.68 3631.4 2132.15 3656.81C2120.53 3677.15 2041.1 3684.22 2002.84 3685.22C1979.75 3684.22 1928.93 3678.24 1910.33 3662.29C1887.09 3642.36 1828.48 3610.46 1816.38 3610.46C1804.27 3610.46 1810.56 3635.88 1805.72 3637.87C1800.88 3639.87 1706.92 3601.99 1701.11 3591.03Z" fill="black"/>
<path d="M2903 3395.72C2904.52 3393.44 2903.71 3386.9 2902.41 3380.71C2901.09 3374.43 2896.97 3369.14 2894.4 3363.25C2888.54 3349.8 2895.18 3332.18 2902.3 3320.07C2905.43 3314.73 2910.41 3310.83 2916.17 3308.57C2966.69 3288.71 3064.19 3271.35 3075.5 3270.22C3081.87 3269.58 3085.98 3270.33 3088.52 3271.46C3091.49 3272.8 3092.81 3276.16 3094.4 3279.01L3098.45 3286.28C3102.07 3292.75 3103.65 3300.31 3106.03 3307.33C3113.47 3329.22 3138.59 3365.9 3144 3374.22C3147.52 3379.63 3185.61 3403.54 3210.77 3418.05C3216.15 3421.16 3222.25 3422.72 3228.46 3422.83C3259.16 3423.36 3308.64 3425.74 3318 3432.22C3331 3441.22 3334 3462.72 3329 3485.22C3324 3507.72 3220 3530.72 3201 3532.72C3182 3534.72 3082 3514.22 3063.5 3507.72C3045 3501.22 2994 3509.72 2970 3514.22C2946 3518.72 2896.5 3503.72 2891.5 3489.72C2886.5 3475.72 2900 3400.22 2903 3395.72Z" fill="#A72023"/>
<path d="M1749.5 3427.72L1763.5 3372.22C1762.7 3361.82 1799.17 3356.89 1817.5 3355.72L1987 3372.22C1971.8 3401.82 1978 3435.22 1983 3448.22C1984 3460.72 2056 3535.22 2071.5 3538.72C2087 3542.22 2138.2 3544.82 2151 3569.22C2163.8 3593.62 2145.67 3617.72 2135 3626.72C2102.5 3648.22 1998 3659.22 1962.5 3655.22C1927 3651.22 1863 3607.22 1839 3586.72C1819.8 3570.32 1766.67 3555.89 1742.5 3550.72C1735.17 3549.39 1719.4 3542.62 1715 3526.22C1710.6 3509.82 1736.17 3453.72 1749.5 3427.72Z" fill="#A72023"/>
<ellipse cx="3016.25" cy="3318.64" rx="76.5536" ry="14" transform="rotate(-21.9159 3016.25 3318.64)" fill="#010101"/>
<ellipse cx="1841.77" cy="3389.07" rx="76.5536" ry="20.5123" transform="rotate(8.69556 1841.77 3389.07)" fill="#010101"/>
<path d="M2099.5 2862.22C2120.7 2851.42 2167 2627.72 2187.5 2517.22L2507.5 2483.72L2761 2435.72L2896.01 2772.06C2901.63 2786.06 2904.9 2800.92 2904.86 2816.01C2904.78 2845.52 2902.71 2884.94 2895 2902.22C2885 2924.62 2993.83 3189.55 3049.5 3319.22C2975.5 3362.82 2915.67 3360.39 2895 3353.72C2876.33 3310.39 2834.3 3217.52 2815.5 3192.72C2792 3161.72 2731 3040.22 2726.5 3014.72C2722.9 2994.32 2703.33 2896.89 2694 2850.72L2612.5 2721.22C2586 2677.55 2535.62 2585.09 2528 2570.22C2518 2550.72 2505.67 2509.89 2507.5 2483.72C2502.34 2496.8 2496.7 2511.07 2490.71 2526.22C2438.86 2657.3 2360.32 2854.7 2329.67 2927.67C2321.96 2946.03 2308.9 2960.95 2292.54 2972.3C2266.96 2990.06 2230.04 3016.76 2206 3040.22L2121 3154.72L2014.5 3319.22C1995.17 3352.89 1969.9 3399.32 1933.5 3407.72C1897.1 3416.12 1823.83 3404.22 1804.5 3382.22L1811 3347.22C1832.33 3300.22 1874.6 3190.02 1887 3141.22C1902.5 3080.22 2073 2875.72 2099.5 2862.22Z" fill="#1D213B"/>
<path d="M1914 1673.72L2232.5 1782.72L2201 2261.72L2053.5 2215.22C1975.5 2178.55 1816 2104.22 1802 2100.22C1788 2096.22 1762.5 2070.55 1751.5 2058.22C1749 2052.05 1743.3 2033.32 1740.5 2007.72C1737.7 1982.12 1766.33 1929.72 1781 1906.72L1914 1673.72Z" fill="#070B10"/>
<path d="M2647.5 1730.22C2652.65 1654.56 2610.82 1499.41 2588.64 1429.24C2588.21 1427.86 2587.91 1426.5 2587.74 1425.06L2578.1 1344.45C2577.4 1338.53 2574.41 1333.11 2569.79 1329.35L2346.45 1147.53C2344.17 1145.67 2341.56 1144.27 2338.75 1143.4L2218.32 1105.99C2203.52 1101.39 2188.5 1112.45 2188.5 1127.95V1141.97C2188.5 1143.8 2188.28 1145.62 2187.85 1147.39L2181.09 1175.29C2180.7 1176.91 2180.13 1178.47 2179.4 1179.97L2139.84 1260.98C2138.95 1262.8 2138.31 1264.73 2137.92 1266.72L2107.72 1423.49C2107.24 1425.96 2107.18 1428.49 2107.52 1430.99L2126 1564.72C2143.67 1637.05 2175.9 1789.22 2163.5 1819.22C2141.5 1863.22 2107 2214.22 2087 2229.72C2067 2245.22 2098 2500.22 2107 2514.22C2116 2528.22 2692.5 2485.72 2705 2478.22C2712.85 2473.51 2739.31 2458.62 2759.42 2447.36C2768.11 2442.5 2772.7 2432.61 2770.78 2422.83L2705 2087.72C2683.67 2000.39 2642.3 1806.62 2647.5 1730.22Z" fill="#00575D"/>
<path d="M2370.15 1340.72C2264.59 1038.24 2159.93 1213.78 2120.36 1340.55C2120.12 1341.33 2120.04 1342.1 2120.13 1342.91C2134.5 1477.86 2162.6 1753.82 2161 1787.72C2159.42 1821.24 2180.07 1871.13 2191.04 1892.81C2191.35 1893.42 2191.74 1893.94 2192.24 1894.41C2309.97 2004.75 2552.19 2230.86 2600.64 2272.7C2602.2 2274.04 2604.18 2274.38 2606.09 2273.6C2645.75 2257.48 2702.81 2167.23 2728.91 2119.57C2730.17 2117.27 2729.76 2114.44 2727.93 2112.57L2372.2 1746.97C2371.11 1745.85 2370.5 1744.35 2370.5 1742.78V1342.73C2370.5 1342.06 2370.37 1341.35 2370.15 1340.72Z" fill="#0C9DA6"/>
<path d="M2811.5 2271.72C2830.7 2243.72 2766.5 2156.39 2732 2116.22L2638.5 2247.72C2652.33 2255.72 2685.5 2284.22 2707.5 2334.22C2735 2396.72 2787.5 2306.72 2811.5 2271.72Z" fill="#EAC0B3"/>
<path d="M2462 622.72C2372 671.92 2257.5 882.553 2211.5 981.72L2462 1077.22C2537.33 1133.89 2688 1246.92 2688 1245.72C2688 1244.52 2681 1198.55 2677.5 1175.72C2667.1 1152.92 2681.83 1100.55 2690.5 1077.22C2715.17 1024.22 2762.6 914.42 2755 899.22C2745.5 880.22 2754 833.22 2747 778.22C2740 723.22 2574.5 561.22 2462 622.72Z" fill="black"/>
<path fill-rule="evenodd" clip-rule="evenodd" d="M2496 1050.22C2488.33 1010.72 2486.9 927.32 2542.5 909.72C2568.94 901.35 2591.11 898.553 2610.14 896.151C2641.13 892.241 2663.79 889.382 2683 865.22C2704.89 837.682 2718.3 819.368 2723.59 807.461C2740.03 867.281 2729.69 940.856 2689.93 1006.83C2638.94 1091.44 2554.3 1139.11 2478.43 1133.72H2485.5L2496 1050.22Z" fill="#EAC0B3"/>
<path d="M2155.5 1096.72C2154.42 1090.26 2188.43 1032.59 2210.83 995.886C2215.05 988.974 2223.37 985.791 2231.14 988.062C2270.44 999.538 2331.15 1017.15 2336.5 1018.22C2344 1019.72 2478.5 1096.72 2489.5 1096.72C2500.5 1096.72 2671 1205.72 2663 1224.72C2656.74 1239.59 2634.33 1291.1 2623.22 1316.57C2622.74 1317.68 2622.37 1318.81 2622.12 1319.99L2602.99 1409.52C2599.72 1424.79 2579.86 1429.01 2570.58 1416.45C2526.38 1356.59 2464.16 1276.05 2450.5 1272.72C2434.1 1268.72 2382.33 1226.39 2358.5 1205.72C2321.5 1166.22 2258.5 1111.72 2239.5 1111.72C2223.8 1111.72 2157 1105.72 2155.5 1096.72Z" fill="#AEA574"/>
<rect x="2107.16" y="1402.22" width="14" height="321.902" rx="7" transform="rotate(20.1004 2107.16 1402.22)" fill="#0E0E18"/>
<rect x="2107.58" y="1412.07" width="14" height="321.902" rx="7" transform="rotate(12.3877 2107.58 1412.07)" fill="#0A0D16"/>
<circle cx="2025" cy="2064.22" r="33" fill="#EAEAEA"/>
</svg>
